<svg width="1145" height="1146" viewBox="0 0 1145 1146" fill="none" xmlns="http://www.w3.org/2000/svg">
<rect y="539" width="809.336" height="811.534" rx="192" transform="rotate(-41.6838 0 539)" fill="#4CAF50"/>
<rect x="288" y="812.925" width="488.925" height="303.312" rx="151.656" transform="rotate(-90 288 812.925)" fill="white"/>
<rect x="180" y="564.38" width="175.155" height="122.623" rx="61.3116" transform="rotate(-67.9819 180 564.38)" fill="white"/>
<path d="M250.6 423.603C250.6 423.603 216.329 330.788 335.869 342.116C455.41 353.444 398.294 312.363 443.466 286.869C488.637 261.375 621.732 340.689 566.05 417.188C510.367 493.687 655.036 423.708 685.214 538.748C703.837 609.741 657.634 661.993 619.517 691.613" stroke="white" stroke-width="5.47" stroke-miterlimit="10"/>
<path d="M631.174 602.919C622.191 555.305 590.383 512.697 538.705 497.447C525.485 493.568 511.966 490.597 498.263 488.561V488.625C497.549 492.577 495.857 496.329 493.317 499.592C487.93 506.345 480.507 511.893 471.912 514.783C463.139 517.755 452.271 518.14 444.128 513.466C439.225 510.657 434.469 505.71 433.61 500.372C432.63 494.359 435.978 488.666 440.69 484.692C400.758 484.989 363.195 491.002 333.093 497.849C334.137 501.847 335.581 505.749 337.41 509.504C339.968 514.738 343.584 519.483 348.067 523.489C353.659 518.419 358.555 512.744 362.647 506.59C366.561 507.762 370.013 509.963 372.573 512.917C375.131 515.87 376.686 519.447 377.042 523.203V523.396C378.621 537.037 364.271 547.287 352.212 553.592C338.282 560.923 322.754 566.412 307.499 570.974C301.209 572.862 293.034 574.471 286.394 572.501C285.679 572.293 284.981 572.037 284.305 571.738C277.684 568.766 273.253 562.537 269.796 556.844C259.946 540.673 253.542 523.046 249.199 504.953C219.066 508.478 215.615 489.802 213.826 485.222L188.048 551.18C186.695 555.921 186.55 560.882 187.62 565.683C188.691 570.484 190.95 574.997 194.225 578.874C197.498 582.751 201.7 585.889 206.507 588.047C211.313 590.205 216.596 591.326 221.95 591.323H328.668L377.144 705.128L390.883 737.428H469.359C462.992 737.428 459.51 736.006 456.982 733.687C454.372 731.296 452.902 728.057 452.895 724.678C452.895 717.685 459.166 711.951 469.359 711.951H470.078C469.308 711.951 468.569 711.887 467.799 711.823C468.276 711.776 468.75 711.704 469.219 711.608C468.714 711.596 468.21 711.561 467.71 711.503C472.307 711.006 476.568 709.046 479.746 705.965C482.924 702.885 484.818 698.88 485.097 694.65C485.11 694.431 485.11 694.211 485.097 693.992V693.654C484.988 689.318 483.176 685.163 479.996 681.948C476.815 678.732 472.477 676.672 467.774 676.143C468.308 676.103 468.818 676.062 469.333 676.062C468.869 675.957 468.353 675.893 467.869 675.829C468.633 675.765 469.403 675.718 470.142 675.718L527.557 675.998L538.119 676.038H550.655C551.234 676.038 551.82 676.038 552.374 676.103L570.996 676.19L583.437 676.254C588.636 676.294 593.606 678.217 597.261 681.602C600.915 684.987 602.956 689.559 602.938 694.318C602.931 697.009 602.25 699.662 600.945 702.074C606.283 701.449 611.232 699.19 614.99 695.664C623.948 687.291 627.806 674.756 630.474 663.615C635.191 643.768 634.911 622.854 631.174 602.919ZM486.116 604.259C475.299 619.497 456.88 618.128 456.88 618.128C456.88 618.128 455.352 619.492 451.787 613.688C448.221 607.884 438.067 603.916 438.067 603.916C437.258 609.743 435.584 618.6 418.967 607.12C402.35 595.641 407.36 578.905 408.78 570.065C410.2 561.226 415.86 558.295 415.86 558.295L422.545 555.066C422.545 555.066 403.209 550.515 402.28 550.346C401.35 550.177 384.128 536.979 401.605 533.494C419.081 530.009 446.324 543.867 451.589 546.605C456.855 549.344 487.625 573.166 487.625 573.166C487.625 573.166 496.99 589.045 486.116 604.259Z" fill="#323A55"/>
<path d="M249.174 504.963C249.174 504.963 263.747 503.343 269.204 493.822L264.448 518.243C264.448 518.243 322.423 500.179 333.055 497.848C333.055 497.848 336.48 518.063 350.118 523.488L364.188 507.113C364.188 507.113 381.83 511.192 377.004 533.196C372.178 555.199 305.43 573.59 294.11 573.164C282.79 572.739 270.604 566.364 258.126 532.106L249.174 504.963Z" fill="#323A55"/>
<path d="M272.915 450.561C276.607 456.062 280.319 461.551 284.152 466.971C286.514 470.31 290.818 475.07 286.24 478.561C284.75 479.606 282.951 480.216 281.077 480.309C278.135 480.548 275.048 479.901 273.259 477.588L264.345 464.069C262.569 461.372 259.748 459.388 256.445 458.508C253.141 457.63 249.598 457.922 246.519 459.325" stroke="black" stroke-width="5.47" stroke-miterlimit="10"/>
<path d="M306.627 468.367C308.957 473.437 307.378 476.706 304.653 478.349C300.196 481.024 294.231 479.742 291.073 475.838L272.947 450.589" stroke="black" stroke-width="5.47" stroke-miterlimit="10"/>
<path d="M288.259 443.219C294.855 450.561 303.176 464.197 307.779 469.89C312.382 475.583 319.5 472.151 319.5 472.151C325.281 469.301 324.301 464.576 321.773 458.836C315.547 444.746 306.659 435.376 296.746 429.234C266.027 410.214 234.512 424.246 225.133 457.076L188.048 551.179C186.695 555.921 186.55 560.882 187.62 565.683C188.691 570.484 190.95 574.997 194.225 578.874C197.498 582.751 201.7 585.889 206.507 588.047C211.313 590.205 216.596 591.325 221.95 591.322H328.668L390.902 737.433" stroke="black" stroke-width="5.47" stroke-miterlimit="10"/>
<path d="M326.363 452.373C334.003 449.949 333.653 438.796 322.811 435.031C310.835 430.871 289.57 424.985 284.229 423.517C284.196 423.493 284.155 423.479 284.114 423.476C283.738 423.371 283.477 423.284 283.274 423.243L282.974 423.155" stroke="black" stroke-width="5.47" stroke-miterlimit="10"/>
<path d="M439.244 563.887C432.559 556.533 414.261 552.367 402.318 550.35C400.31 550.005 398.48 549.072 397.101 547.693C395.724 546.313 394.873 544.561 394.678 542.699C394.539 541.444 394.697 540.176 395.142 538.982C395.854 537.148 397.219 535.586 399.016 534.547C400.813 533.507 402.94 533.05 405.055 533.248C425.429 535.136 446.439 541.004 461.98 553.643C461.98 553.643 537.316 606.262 546.312 611.384C550.024 613.447 553.488 611.011 550.973 607.771L550.183 606.536C545.755 599.581 540.514 593.086 534.553 587.166" stroke="black" stroke-width="5.47" stroke-miterlimit="10"/>
<path d="M440.639 484.684C345.89 485.407 264.448 518.237 264.448 518.237L272.578 476.526" stroke="black" stroke-width="5.47" stroke-miterlimit="10"/>
<path d="M587.798 711.693C587.798 711.693 577.478 709.555 574.734 717.118C571.99 724.682 569.125 736.715 588.855 737.426C608.585 738.137 596.998 734.588 595.858 728.744C594.719 722.899 587.798 711.693 587.798 711.693Z" fill="#323A55"/>
<path d="M430.14 573.485C430.14 573.485 419.005 565.758 408.977 573.59C408.555 573.931 408.187 574.323 407.882 574.756" stroke="black" stroke-width="5.47" stroke-miterlimit="10"/>
<g opacity="0.77">
<path opacity="0.77" d="M291.035 475.81C294.218 479.72 300.177 480.997 304.615 478.316C307.308 476.684 308.887 473.433 306.614 468.41C307.028 468.963 307.404 469.453 307.773 469.902C312.37 475.618 319.494 472.174 319.494 472.174C325.275 469.325 324.301 464.599 321.773 458.853C319.3 453.162 316.055 447.779 312.115 442.829C314.693 440.62 317.756 438.388 320.984 439.367C324.466 440.428 325.44 444.425 325.835 447.758C326.02 449.308 326.204 450.841 326.389 452.391L329.178 475.21C330.107 482.785 331.037 490.472 333.055 497.866C334.098 501.864 335.543 505.766 337.372 509.521C339.93 514.755 343.546 519.5 348.029 523.506C353.621 518.436 358.517 512.761 362.609 506.607C366.523 507.779 369.975 509.98 372.535 512.934C375.093 515.887 376.648 519.464 377.004 523.22V523.413C378.583 537.054 364.232 547.304 352.174 553.609C338.244 560.94 322.715 566.429 307.461 570.991C301.171 572.879 292.996 574.488 286.355 572.518C285.64 572.31 284.943 572.054 284.267 571.755C277.646 568.783 273.215 562.554 269.757 556.861C253.204 529.618 246.328 498.338 242.706 467.361C249.951 466.446 257.171 465.426 264.301 464.022C264.301 464.022 264.301 464.069 264.346 464.086L272.565 476.562L273.24 477.599C275.023 479.93 278.111 480.554 281.058 480.321C282.933 480.235 284.733 479.625 286.215 478.572C290.787 475.076 286.495 470.333 284.127 466.994" fill="white"/>
<path opacity="0.77" d="M291.035 475.81C294.218 479.72 300.177 480.997 304.615 478.316C307.308 476.684 308.887 473.433 306.614 468.41C307.028 468.963 307.404 469.453 307.773 469.902C312.37 475.618 319.494 472.174 319.494 472.174C325.275 469.325 324.301 464.599 321.773 458.853C319.3 453.162 316.055 447.779 312.115 442.829C314.693 440.62 317.756 438.388 320.984 439.367C324.466 440.428 325.44 444.425 325.835 447.758C326.02 449.308 326.204 450.841 326.389 452.391L329.178 475.21C330.107 482.785 331.037 490.472 333.055 497.866C334.098 501.864 335.543 505.766 337.372 509.521C339.93 514.755 343.546 519.5 348.029 523.506C353.621 518.436 358.517 512.761 362.609 506.607C366.523 507.779 369.975 509.98 372.535 512.934C375.093 515.887 376.648 519.464 377.004 523.22V523.413C378.583 537.054 364.232 547.304 352.174 553.609C338.244 560.94 322.715 566.429 307.461 570.991C301.171 572.879 292.996 574.488 286.355 572.518C285.64 572.31 284.943 572.054 284.267 571.755C277.646 568.783 273.215 562.554 269.757 556.861C253.204 529.618 246.328 498.338 242.706 467.361C249.951 466.446 257.171 465.426 264.301 464.022C264.301 464.022 264.301 464.069 264.346 464.086L272.565 476.562L273.24 477.599C275.023 479.93 278.111 480.554 281.058 480.321C282.933 480.235 284.733 479.625 286.215 478.572C290.787 475.076 286.495 470.333 284.127 466.994" fill="#4CAF7F"/>
<path opacity="0.77" d="M292.989 477.658C295.809 481.154 300.629 480.711 304.614 478.316C307.021 476.859 308.995 477.285 306.964 472.792C307.339 473.281 307.39 471.626 307.721 471.994C311.828 477.098 307.772 469.884 307.772 469.884C313.502 476.51 325.975 470.269 323.689 465.147C321.27 459.628 318.723 451.47 315.495 447.391C318.042 445.189 317.552 445.515 320.792 447.269C321.663 447.78 322.391 448.471 322.921 449.285C323.45 450.099 323.765 451.015 323.842 451.96C324.103 454.18 324.364 456.307 324.625 458.474L327.108 478.87C327.942 485.647 328.77 492.494 330.571 499.09C331.503 502.657 332.795 506.137 334.43 509.486C336.709 514.095 344.031 521.769 348.029 525.283C353.001 520.767 358.96 512.463 362.608 506.945C369.612 508.914 369.306 515.045 369.803 521.74V521.915C371.216 534.088 358.406 543.231 347.672 548.866C335.232 555.41 321.372 560.304 307.753 564.383C302.138 566.073 294.842 567.53 288.914 565.747C288.275 565.562 287.651 565.334 287.049 565.065C281.141 562.408 277.181 556.855 274.093 551.768C260.576 529.548 254.305 504.323 250.854 479.033C250.601 477.14 251.161 475.232 252.415 473.71C253.669 472.188 255.52 471.171 257.578 470.875C261.455 470.292 265.319 469.709 269.159 468.928L269.267 468.975L276.601 480.111C278.199 482.179 278.46 480.559 281.09 480.35C282.751 480.216 285.973 479.918 287.259 478.934C291.34 475.822 289.035 474.534 286.922 471.556" fill="#4CAF7F"/>
</g>
<path d="M428.796 584.732C428.796 584.732 407.652 578.369 407.334 589.068" stroke="black" stroke-width="5.47" stroke-miterlimit="10"/>
<path d="M435.679 601.134C435.679 601.134 439.111 604.012 437.806 608.126C436.838 611.174 433.527 613.097 430.248 612.054C419.807 608.75 410.403 603.138 408.111 593.599C407.029 588.769 406.794 583.812 407.418 578.915C407.92 574.375 408.653 569.475 410.321 565.157C412.867 558.525 420.667 553.904 428.237 557.098" stroke="black" stroke-width="5.47" stroke-miterlimit="10"/>
<path d="M239.535 693.716L198.069 596.483C197.555 594.602 197.517 592.638 197.956 590.741C198.396 588.844 199.303 587.063 200.606 585.535C201.911 584.006 203.578 582.77 205.483 581.92C207.388 581.069 209.479 580.628 211.598 580.628H376.304C380.002 580.627 383.593 581.766 386.498 583.862C389.402 585.957 391.452 588.886 392.316 592.177L437.71 689.386C438.201 691.261 438.221 693.214 437.769 695.097C437.316 696.981 436.404 698.746 435.099 700.26C433.795 701.774 432.132 702.998 430.237 703.84C428.341 704.681 426.262 705.119 424.155 705.119H255.509C251.838 705.122 248.272 704 245.377 701.934C242.483 699.867 240.427 696.975 239.535 693.716Z" fill="#4CAF7F"/>
<path d="M239.535 693.716L198.069 596.483C197.555 594.602 197.517 592.638 197.956 590.741C198.396 588.844 199.303 587.063 200.606 585.535C201.911 584.006 203.578 582.77 205.483 581.92C207.388 581.069 209.479 580.628 211.598 580.628H376.304C380.002 580.627 383.593 581.766 386.498 583.862C389.402 585.957 391.452 588.886 392.316 592.177L437.71 689.386C438.201 691.261 438.221 693.214 437.769 695.097C437.316 696.981 436.404 698.746 435.099 700.26C433.795 701.774 432.132 702.998 430.237 703.84C428.341 704.681 426.262 705.119 424.155 705.119H255.509C251.838 705.122 248.272 704 245.377 701.934C242.483 699.867 240.427 696.975 239.535 693.716Z" stroke="black" stroke-width="5.47" stroke-linecap="square" stroke-linejoin="round"/>
<path d="M245.602 689.8L207.345 600.061C206.872 598.325 206.837 596.514 207.244 594.764C207.65 593.014 208.486 591.371 209.69 589.962C210.894 588.552 212.432 587.412 214.189 586.627C215.946 585.843 217.875 585.435 219.83 585.435H371.777C375.188 585.434 378.501 586.485 381.18 588.417C383.86 590.349 385.751 593.051 386.547 596.087L428.434 685.773C428.886 687.504 428.904 689.306 428.486 691.043C428.068 692.781 427.225 694.409 426.021 695.806C424.818 697.203 423.284 698.332 421.535 699.108C419.786 699.885 417.867 700.289 415.923 700.289H260.335C256.953 700.292 253.668 699.261 251 697.361C248.331 695.461 246.432 692.8 245.602 689.8Z" fill="#4CAF7F"/>
<path d="M570.793 675.723L599.926 737.426" stroke="black" stroke-width="5.47" stroke-miterlimit="10"/>
<path opacity="0.54" d="M239.535 693.716L198.069 596.483C197.555 594.602 197.517 592.638 197.956 590.741C198.396 588.844 199.303 587.063 200.606 585.535C201.911 584.006 203.578 582.77 205.483 581.92C207.388 581.069 209.479 580.628 211.598 580.628H376.304C380.002 580.627 383.593 581.766 386.498 583.862C389.402 585.957 391.452 588.886 392.316 592.177L437.71 689.386C438.201 691.261 438.221 693.214 437.769 695.097C437.316 696.981 436.404 698.746 435.099 700.26C433.795 701.774 432.132 702.998 430.237 703.84C428.341 704.681 426.262 705.119 424.155 705.119H255.509C251.838 705.122 248.272 704 245.377 701.934C242.483 699.867 240.427 696.975 239.535 693.716Z" fill="white"/>
<path d="M709 737.426H136" stroke="black" stroke-width="5.47" stroke-miterlimit="10"/>
<path d="M438.015 458.934C433.291 463.205 426.237 463.199 422.22 459.248" stroke="black" stroke-width="5.47" stroke-miterlimit="10"/>
<path d="M312.115 442.81C314.693 440.601 317.756 438.37 320.984 439.349C324.466 440.409 325.44 444.407 325.835 447.74C326.951 456.9 328.065 466.051 329.178 475.192C330.591 486.847 332.081 498.78 337.371 509.49C339.93 514.725 343.546 519.47 348.029 523.476" stroke="black" stroke-width="5.47" stroke-miterlimit="10"/>
<path d="M377.004 523.405V523.213C376.648 519.458 375.093 515.88 372.534 512.926C369.975 509.973 366.523 507.773 362.609 506.6C358.517 512.754 353.621 518.429 348.029 523.499C333.368 536.841 314.535 545.678 294.141 548.783C295.122 552.355 297.14 555.606 298.534 559.044C299.929 562.482 300.623 566.462 298.929 569.778C296.79 574.009 290.652 573.455 286.387 572.517C286.342 572.517 286.317 572.517 286.272 572.517" stroke="black" stroke-width="5.47" stroke-miterlimit="10"/>
<path d="M264.314 464.016C257.183 465.421 249.964 466.44 242.718 467.355C246.341 498.332 253.191 529.613 269.77 556.855C273.227 562.548 277.659 568.777 284.28 571.749C284.955 572.049 285.653 572.304 286.368 572.512C293.009 574.511 301.183 572.874 307.474 570.986C322.754 566.417 338.257 560.934 352.187 553.603C364.213 547.292 378.564 537.048 377.017 523.407C376.867 521.904 376.532 520.423 376.017 518.99" stroke="black" stroke-width="5.47" stroke-miterlimit="10"/>
<path d="M383.549 402.223C384.617 406.301 387.056 409.969 390.523 412.71C393.989 415.451 398.309 417.127 402.872 417.502C403.25 415.82 404.072 414.247 405.265 412.922C410.359 407.427 412.53 417.736 428.822 410.335C451.398 400.056 459.968 405.953 459.968 405.953C460.719 406.466 460.605 411.197 460.732 412.059C461.369 416.972 461.942 421.861 462.572 426.767C462.954 429.762 463.329 432.735 463.686 435.707C463.994 435.201 464.333 434.712 464.705 434.243C466.761 427.583 470.435 419.717 478.355 423.102C479.959 423.818 481.355 424.87 482.429 426.173C487.682 432.489 483.703 438.59 478.208 443.106C476.831 444.508 475.292 445.768 473.618 446.866C474.522 448.579 478.215 455.379 478.215 455.402C478.597 456.09 491.502 442.722 492.463 441.265C493.9 437.697 494.67 433.932 494.743 430.13C494.953 414.496 488 396.297 474.166 387.329C470.734 385.109 471.829 382.97 471.619 379.952C471.604 379.788 471.536 379.633 471.423 379.506C471.31 379.379 471.157 379.287 470.986 379.241C470.814 379.195 470.631 379.198 470.461 379.248C470.291 379.3 470.142 379.396 470.034 379.527C465.698 384.095 454.964 383.641 454.964 383.641C417.706 375.098 405.183 390.26 397.664 392.964C394.596 394.028 391.219 394.079 388.114 393.11C387.931 394.05 387.471 394.927 386.783 395.646C386.095 396.366 385.206 396.899 384.211 397.189L384.402 398.768C384.564 399.976 384.262 401.197 383.549 402.223Z" fill="#4CAF7F"/>
<path d="M402.897 417.527C398.334 417.152 394.015 415.476 390.548 412.735C387.082 409.994 384.642 406.326 383.574 402.249C383.156 400.685 382.892 399.089 382.785 397.482L383.078 397.453C383.478 397.425 383.872 397.347 384.249 397.22C385.244 396.93 386.133 396.396 386.821 395.677C387.509 394.959 387.969 394.081 388.152 393.141C388.268 392.619 388.292 392.084 388.222 391.556L387.267 383.841C387.267 383.841 394.003 388.427 401.477 385.746C408.952 383.066 421.5 367.903 458.777 376.423C458.777 376.423 467.194 376.877 471.511 372.309C471.62 372.178 471.768 372.081 471.938 372.031C472.108 371.979 472.291 371.977 472.463 372.023C472.634 372.069 472.787 372.162 472.9 372.288C473.013 372.415 473.081 372.571 473.096 372.734C473.319 375.758 474.541 377.897 477.979 380.111C491.814 389.085 498.766 407.277 498.55 422.912C498.486 429.397 496.131 435.801 492.495 441.296C491.534 442.753 478.629 456.121 478.247 455.433C478.247 455.433 474.554 448.61 473.65 446.896L473.433 446.518L473.847 446.267C475.384 445.312 476.852 444.267 478.24 443.138C483.728 438.622 487.714 432.521 482.461 426.204C481.386 424.901 479.99 423.849 478.387 423.133C470.441 419.748 466.793 427.614 464.737 434.275C464.337 435.547 464.092 436.857 464.004 438.179C463.909 437.363 463.813 436.576 463.718 435.761C463.361 432.789 462.986 429.817 462.604 426.822C461.967 421.915 461.369 417.026 460.764 412.114C460.668 411.275 460.764 406.52 460 406.007C460 406.007 451.424 400.11 428.854 410.389C412.562 417.79 410.391 407.476 405.297 412.976C404.104 414.302 403.282 415.874 402.903 417.557C402.787 418.097 402.712 418.644 402.681 419.194C402.669 419.265 402.669 419.338 402.681 419.41C402.604 420.616 402.579 421.816 402.547 422.993C402.426 434.35 403.788 446.215 408.659 456.762C414.58 469.547 430.248 482.157 446.541 476.195C451.634 474.325 456.199 471.312 460.375 468.113" stroke="black" stroke-width="5.47" stroke-miterlimit="10"/>
<path d="M414.046 445.226C415.667 444.73 416.449 442.873 415.793 441.079C415.137 439.284 413.291 438.231 411.67 438.728C410.05 439.224 409.268 441.081 409.924 442.876C410.58 444.67 412.426 445.723 414.046 445.226Z" fill="black"/>
<path d="M438.288 444.516C439.908 444.02 440.69 442.163 440.035 440.368C439.378 438.574 437.533 437.521 435.912 438.018C434.292 438.514 433.51 440.371 434.166 442.165C434.822 443.96 436.667 445.013 438.288 444.516Z" fill="black"/>
<path d="M429.019 448.359C429.019 448.359 420.953 452.549 420.463 448.202C420.31 446.862 418.336 433.733 418.336 433.733C418.336 433.733 411.817 427.41 401.827 432.084" stroke="black" stroke-width="5.47" stroke-miterlimit="10"/>
<path d="M427.205 430.054C427.205 430.054 440.231 424.099 448.852 432.682" stroke="black" stroke-width="5.47" stroke-miterlimit="10"/>
<path d="M439.149 477.658L440.645 484.685C435.927 488.665 432.591 494.37 433.565 500.378C434.431 505.704 439.194 510.663 444.077 513.454C452.239 518.116 463.094 517.749 471.88 514.783C480.469 511.869 487.899 506.339 493.285 499.591C495.821 496.329 497.511 492.581 498.225 488.63V488.56" stroke="black" stroke-width="5.47" stroke-miterlimit="10"/>
<path d="M440.645 484.684L443.561 497.376" stroke="black" stroke-width="5.47" stroke-miterlimit="10"/>
<path d="M481.882 452.373L486.287 479.149C486.722 481.77 488.169 484.162 490.367 485.888C492.565 487.616 495.366 488.564 498.263 488.56C511.975 490.594 525.501 493.562 538.73 497.441C590.408 512.696 622.216 555.305 631.199 602.913C634.936 622.847 635.216 643.755 630.524 663.579C627.857 674.738 623.998 687.273 615.04 695.629C603.409 706.526 585.556 702.039 571.811 697.115C529.135 681.923 493.641 654.897 462.992 623.955C446.604 607.405 425.428 594.143 425.428 594.143" stroke="black" stroke-width="5.47" stroke-miterlimit="10"/>
<path d="M259.705 669.716C254.917 669.675 250.747 666.138 249.671 661.214C247.544 651.529 246.984 636.554 262.5 633.285C281.886 629.206 296.797 648.528 304.106 660.742C306.563 664.821 303.781 670.066 299.203 670.066L259.705 669.716Z" fill="#B8F4DF"/>
<path d="M266.105 625.061C270.22 622.554 270.284 616.02 266.245 610.466C262.208 604.911 255.598 602.441 251.482 604.948C247.366 607.454 247.303 613.989 251.34 619.543C255.379 625.097 261.989 627.568 266.105 625.061Z" fill="#B8F4DF"/>
<path d="M584.703 712.013C584.404 712.054 584.067 712.095 583.774 712.159H583.659L538.373 711.943L470.422 711.623C470.161 711.623 469.906 711.623 469.651 711.623C469.146 711.612 468.643 711.577 468.142 711.518C472.746 711.028 477.014 709.068 480.195 705.983C483.375 702.897 485.264 698.883 485.53 694.648C485.543 694.429 485.543 694.209 485.53 693.99V693.652C485.511 689.508 483.934 685.497 481.062 682.292C478.192 679.088 474.202 676.887 469.766 676.06C469.301 675.955 468.792 675.891 468.302 675.826C469.072 675.762 469.836 675.716 470.581 675.716L527.989 675.995L538.558 676.036L552.813 676.1C557.693 676.508 562.233 678.568 565.543 681.876C568.852 685.184 570.695 689.504 570.709 693.99C570.71 694.836 570.64 695.682 570.499 696.519C569.821 700.789 567.49 704.695 563.931 707.526C560.372 710.356 555.822 711.924 551.106 711.943H585.601C583.615 711.943 584.169 711.943 584.703 712.013Z" fill="white"/>
<path d="M492.846 733.687C494.139 734.877 495.678 735.821 497.373 736.463C499.068 737.105 500.886 737.433 502.72 737.428H469.372C463.005 737.428 459.529 736.006 456.995 733.687C454.391 731.293 452.925 728.055 452.914 724.678C452.914 717.685 459.179 711.951 469.372 711.951H502.72C499.967 711.947 497.275 712.691 494.984 714.09C492.693 715.488 490.908 717.476 489.854 719.804C488.8 722.132 488.524 724.695 489.062 727.166C489.6 729.637 490.929 731.906 492.877 733.687H492.846Z" fill="#B8F4DF"/>
<path d="M602.982 694.31C602.974 697.002 602.29 699.655 600.983 702.066C600.05 703.889 598.769 705.544 597.201 706.955C594.616 709.3 591.369 710.94 587.823 711.693C586.361 712.001 584.867 712.158 583.367 712.159C583.672 712.095 584.003 712.054 584.296 712.013C583.761 711.967 583.207 711.949 585.2 711.949H550.699C555.418 711.933 559.972 710.365 563.534 707.533C567.095 704.701 569.427 700.792 570.105 696.519C570.246 695.682 570.316 694.836 570.315 693.99C570.3 689.503 568.457 685.183 565.146 681.874C561.835 678.566 557.294 676.507 552.412 676.1L571.034 676.188L583.475 676.252C588.674 676.292 593.644 678.214 597.299 681.598C600.954 684.981 602.998 689.552 602.982 694.31Z" fill="#4CAF7F"/>
<path d="M602.982 694.305C602.944 699.067 600.845 703.62 597.145 706.967C593.446 710.315 588.448 712.184 583.246 712.166L469.97 711.63C469.212 711.63 468.455 711.577 467.691 711.507C472.466 711.012 476.876 708.931 480.087 705.658C483.297 702.385 485.084 698.148 485.109 693.75C485.134 689.352 483.395 685.098 480.223 681.795C477.05 678.492 472.664 676.368 467.894 675.827C468.651 675.755 469.412 675.72 470.174 675.723L583.449 676.259C588.651 676.291 593.627 678.208 597.287 681.59C600.948 684.973 602.996 689.545 602.982 694.305Z" stroke="black" stroke-width="5.47" stroke-linecap="square" stroke-linejoin="round"/>
<path d="M570.302 693.984C570.292 698.744 568.222 703.307 564.544 706.673C560.866 710.039 555.881 711.934 550.68 711.944H470.085C469.323 711.939 468.562 711.9 467.805 711.827C472.577 711.308 476.975 709.206 480.166 705.918C483.357 702.63 485.12 698.385 485.12 693.987C485.12 689.589 483.357 685.344 480.166 682.056C476.975 678.768 472.577 676.666 467.805 676.147C468.563 676.083 469.327 676.036 470.085 676.036H550.68C555.879 676.047 560.861 677.941 564.538 681.304C568.215 684.668 570.287 689.226 570.302 693.984Z" stroke="black" stroke-width="5.47" stroke-linecap="square" stroke-linejoin="round"/>
<path d="M452.914 724.681C452.913 726.352 453.273 728.007 453.972 729.552C454.672 731.095 455.696 732.498 456.988 733.678C459.535 736.009 462.992 737.425 469.365 737.425H585.194C583.201 737.425 583.742 737.39 584.284 737.344C580.895 736.979 577.77 735.488 575.502 733.153C573.234 730.82 571.982 727.805 571.982 724.681C571.982 721.558 573.234 718.543 575.502 716.209C577.77 713.875 580.895 712.384 584.284 712.019C583.742 711.972 583.201 711.937 585.194 711.937H469.365C459.166 711.943 452.914 717.677 452.914 724.681Z" stroke="black" stroke-width="5.47" stroke-linecap="square" stroke-linejoin="round"/>
<path d="M488.758 724.681C488.766 728.059 490.236 731.296 492.845 733.684C495.455 736.073 498.992 737.418 502.682 737.425H582.666C583.201 737.425 583.742 737.39 584.283 737.344C580.894 736.979 577.77 735.488 575.502 733.153C573.234 730.82 571.982 727.805 571.982 724.681C571.982 721.558 573.234 718.543 575.502 716.209C577.77 713.875 580.894 712.384 584.283 712.019C583.742 711.972 583.201 711.937 582.666 711.937H502.682C498.992 711.947 495.456 713.292 492.847 715.68C490.238 718.068 488.768 721.304 488.758 724.681Z" stroke="black" stroke-width="5.47" stroke-linecap="square" stroke-linejoin="round"/>
<path d="M359.101 627.45H323.371C321.736 627.448 320.137 627.01 318.77 626.191C317.402 625.371 316.324 624.206 315.667 622.835C315.414 622.325 315.305 621.765 315.352 621.206C315.398 620.647 315.599 620.109 315.935 619.64C316.27 619.171 316.73 618.788 317.271 618.525C317.812 618.263 318.416 618.13 319.029 618.139H357.012C355.223 620.895 356.134 624.723 359.101 627.45Z" fill="#B8F4DF"/>
<path d="M382.205 624.081C382.203 624.973 381.816 625.827 381.127 626.457C380.439 627.087 379.506 627.442 378.532 627.443H359.101C356.134 624.722 355.223 620.893 357.012 618.12H374.171C375.804 618.12 377.401 618.554 378.77 619.369C380.138 620.184 381.219 621.346 381.881 622.712C382.086 623.144 382.196 623.61 382.205 624.081Z" fill="#4CAF7F"/>
<path d="M373.267 627.45C373.166 627.628 373.049 627.797 372.916 627.957C370.37 631.144 364.837 631.453 360.54 628.575C360.032 628.231 359.551 627.855 359.101 627.45C356.134 624.729 355.223 620.9 357.012 618.126C357.113 617.949 357.23 617.779 357.363 617.619C359.909 614.409 365.416 614.123 369.714 616.978C370.232 617.333 370.719 617.723 371.172 618.144C374.113 620.853 375.03 624.659 373.267 627.45Z" fill="white"/>
<path d="M391.189 644.612C391.182 645.504 390.79 646.358 390.098 646.986C389.407 647.615 388.471 647.968 387.496 647.968H350.003C351.811 645.183 350.907 641.384 347.934 638.645H383.154C384.79 638.645 386.389 639.081 387.759 639.899C389.127 640.718 390.207 641.884 390.864 643.254C391.074 643.681 391.185 644.143 391.189 644.612Z" fill="#4CAF7F"/>
<path d="M350.003 647.967H332.361C330.728 647.968 329.13 647.534 327.761 646.719C326.392 645.904 325.311 644.742 324.651 643.375C324.443 642.947 324.333 642.486 324.326 642.017C324.326 641.576 324.42 641.139 324.604 640.732C324.788 640.324 325.058 639.954 325.399 639.642C325.739 639.33 326.144 639.083 326.589 638.915C327.035 638.746 327.512 638.66 327.994 638.661H347.934C350.907 641.382 351.83 645.181 350.003 647.967Z" fill="#B8F4DF"/>
<path d="M350.003 647.967C349.92 648.15 349.81 648.323 349.678 648.48C347.131 651.685 341.618 651.976 337.327 649.115C336.807 648.761 336.318 648.371 335.862 647.95C332.915 645.228 332.01 641.429 333.774 638.626C333.876 638.447 333.993 638.275 334.124 638.113C336.671 634.926 342.203 634.617 346.495 637.502C347.006 637.841 347.487 638.217 347.934 638.626C350.907 641.382 351.83 645.182 350.003 647.967Z" fill="white"/>
<path d="M362.494 668.346H340.045C338.413 668.344 336.816 667.91 335.448 667.095C334.079 666.28 332.998 665.12 332.335 663.754C332.082 663.243 331.975 662.681 332.022 662.122C332.07 661.562 332.27 661.022 332.606 660.552C332.942 660.082 333.402 659.697 333.943 659.433C334.485 659.168 335.089 659.034 335.703 659.04H360.406C358.636 661.831 359.546 665.625 362.494 668.346Z" fill="#4CAF7F"/>
<path d="M398.873 665.012C398.868 665.898 398.479 666.747 397.792 667.372C397.104 667.997 396.174 668.346 395.206 668.345H362.494C359.546 665.624 358.636 661.825 360.406 659.022H390.838C392.473 659.022 394.073 659.458 395.443 660.276C396.812 661.095 397.891 662.26 398.548 663.631C398.758 664.066 398.869 664.536 398.873 665.012Z" fill="#B8F4DF"/>
<path d="M376.66 668.346C376.558 668.525 376.441 668.696 376.31 668.859C373.763 672.064 368.256 672.355 363.958 669.494C363.442 669.138 362.955 668.749 362.5 668.328C359.553 665.607 358.642 661.808 360.412 659.005C360.51 658.825 360.624 658.653 360.756 658.492C363.303 655.305 368.835 655.031 373.133 657.88C373.643 658.22 374.125 658.596 374.572 659.005C377.538 661.761 378.443 665.584 376.66 668.346Z" fill="white"/>
<path d="M207.058 482.57L207.618 482.715L207.408 483.46C207.275 483.169 207.158 482.872 207.058 482.57Z" fill="#323A55"/>
<path d="M306.694 529.19C315.075 526.938 319.479 517.66 316.53 508.467C313.582 499.275 304.398 493.647 296.017 495.899C287.636 498.151 283.233 507.429 286.182 516.622C289.13 525.815 298.314 531.441 306.694 529.19Z" fill="#B8F4DF"/>
</svg>
